<svg width="90" height="80" viewBox="0 0 90 80" fill="none" xmlns="http://www.w3.org/2000/svg">
<g filter="url(#filter0_d_213_2101)">
<path d="M31.8101 50.6083C31.973 50.7561 29.3758 57.1453 27.7121 59.0591C26.0484 60.9729 23.872 61.8036 22.8503 60.9154C21.8285 60.0272 22.348 57.7565 24.0119 55.8425C25.6757 53.9285 31.6472 50.4605 31.8101 50.6083Z" fill="#309EFC"/>
<path d="M24.3086 57.1284C24.4757 57.3959 25.0543 57.3358 25.6009 56.9943C26.1475 56.6527 26.4551 56.159 26.288 55.8915C26.1208 55.624 25.5422 55.6841 24.9956 56.0256C24.449 56.3672 24.1414 56.8609 24.3086 57.1284Z" fill="white"/>
<path d="M49.398 50.6083C49.5609 50.7561 46.9637 57.1453 45.3 59.0591C43.6363 60.9729 41.4599 61.8036 40.4382 60.9154C39.4164 60.0272 39.9359 57.7565 41.5997 55.8425C43.2636 53.9285 49.2351 50.4605 49.398 50.6083Z" fill="#309EFC"/>
<path d="M41.8979 57.1284C42.0651 57.3959 42.6437 57.3358 43.1903 56.9943C43.7369 56.6527 44.0445 56.159 43.8774 55.8915C43.7102 55.624 43.1316 55.6841 42.585 56.0256C42.0384 56.3672 41.7308 56.8609 41.8979 57.1284Z" fill="white"/>
<path d="M66.9873 50.6084C67.1502 50.7561 64.553 57.1453 62.8894 59.0592C61.2257 60.973 59.0492 61.8036 58.0275 60.9155C57.0058 60.0273 57.5253 57.7566 59.1891 55.8426C60.8529 53.9285 66.8244 50.4606 66.9873 50.6084Z" fill="#309EFC"/>
<path d="M59.4858 57.1283C59.6529 57.3958 60.2316 57.3358 60.7782 56.9942C61.3248 56.6527 61.6324 56.1589 61.4652 55.8914C61.2981 55.6239 60.7195 55.684 60.1729 56.0256C59.6263 56.3671 59.3187 56.8608 59.4858 57.1283Z" fill="white"/>
<path d="M53.7256 61.0846C53.8885 61.2324 51.2913 67.6216 49.6276 69.5354C47.964 71.4493 45.7875 72.2799 44.7658 71.3917C43.7441 70.5035 44.2635 68.2329 45.9274 66.3188C47.5912 64.4048 53.5627 60.9368 53.7256 61.0846Z" fill="#309EFC"/>
<path d="M46.2872 67.6602C46.4724 67.9434 47.0749 67.9041 47.6328 67.5723C48.1907 67.2406 48.4928 66.7421 48.3076 66.4589C48.1223 66.1757 47.5199 66.215 46.962 66.5467C46.4041 66.8785 46.102 67.377 46.2872 67.6602Z" fill="white"/>
<path d="M34.2085 61.0845C34.3714 61.2323 31.7742 67.6215 30.1106 69.5353C28.4469 71.4492 26.2704 72.2798 25.2487 71.3916C24.227 70.5035 24.7464 68.2328 26.4103 66.3187C28.0741 64.4047 34.0456 60.9367 34.2085 61.0845Z" fill="#309EFC"/>
<path d="M26.706 67.6046C26.8732 67.8721 27.4518 67.812 27.9984 67.4705C28.545 67.1289 28.8526 66.6352 28.6855 66.3677C28.5183 66.1002 27.9397 66.1602 27.3931 66.5018C26.8465 66.8434 26.5389 67.3371 26.706 67.6046Z" fill="white"/>
</g>
<g filter="url(#filter1_d_213_2101)">
<path fill-rule="evenodd" clip-rule="evenodd" d="M73.7921 36.3575C73.9291 35.4248 74 34.4707 74 33.5C74 22.7304 65.2696 14 54.5 14C46.7126 14 39.9913 18.5649 36.8662 25.1647C34.4519 23.1869 31.3645 22 28 22C20.268 22 14 28.268 14 36C14 36.3956 14.0164 36.7874 14.0486 37.1747C10.4605 38.9865 8 42.7059 8 47C8 53.0751 12.9249 58 19 58H71C77.0751 58 82 53.0751 82 47C82 41.8896 78.5151 37.5932 73.7921 36.3575Z" fill="url(#paint0_linear_213_2101)"/>
</g>
<defs>
<filter id="filter0_d_213_2101" x="21.6507" y="48.1189" width="50.5421" height="27.0182" filterUnits="userSpaceOnUse" color-interpolation-filters="sRGB">
<feFlood flood-opacity="0" result="BackgroundImageFix"/>
<feColorMatrix in="SourceAlpha" type="matrix" values="0 0 0 0 0 0 0 0 0 0 0 0 0 0 0 0 0 0 127 0" result="hardAlpha"/>
<feOffset dx="2.26111" dy="0.452222"/>
<feGaussianBlur stdDeviation="1.46853"/>
<feColorMatrix type="matrix" values="0 0 0 0 0.175755 0 0 0 0 0.328783 0 0 0 0 0.625833 0 0 0 0.5 0"/>
<feBlend mode="normal" in2="BackgroundImageFix" result="effect1_dropShadow_213_2101"/>
<feBlend mode="normal" in="SourceGraphic" in2="effect1_dropShadow_213_2101" result="shape"/>
</filter>
<filter id="filter1_d_213_2101" x="6" y="11" width="82" height="52" filterUnits="userSpaceOnUse" color-interpolation-filters="sRGB">
<feFlood flood-opacity="0" result="BackgroundImageFix"/>
<feColorMatrix in="SourceAlpha" type="matrix" values="0 0 0 0 0 0 0 0 0 0 0 0 0 0 0 0 0 0 127 0" result="hardAlpha"/>
<feOffset dx="2" dy="1"/>
<feGaussianBlur stdDeviation="2"/>
<feColorMatrix type="matrix" values="0 0 0 0 0.619792 0 0 0 0 0.74623 0 0 0 0 0.991667 0 0 0 0.4 0"/>
<feBlend mode="normal" in2="BackgroundImageFix" result="effect1_dropShadow_213_2101"/>
<feBlend mode="normal" in="SourceGraphic" in2="effect1_dropShadow_213_2101" result="shape"/>
</filter>
<linearGradient id="paint0_linear_213_2101" x1="37.97" y1="19.544" x2="51.5821" y2="60.7619" gradientUnits="userSpaceOnUse">
<stop stop-color="white" stop-opacity="0.95"/>
<stop offset="1" stop-color="#B1D5FF" stop-opacity="0.5"/>
</linearGradient>
</defs>
</svg>
