<svg width="90" height="80" viewBox="0 0 90 80" fill="none" xmlns="http://www.w3.org/2000/svg">
<g filter="url(#filter0_d_213_2218)">
<path d="M36.3312 48H46.9522L40.8465 57.0208L47.9854 57.1568L33.0013 75L36.6319 61.396H29.9854L36.3312 48Z" fill="url(#paint0_linear_213_2218)"/>
<path d="M50.8782 56H57.3686L53.6373 60.6777L58 60.7481L48.8431 70L51.0619 62.9463H47L50.8782 56Z" fill="url(#paint1_linear_213_2218)"/>
</g>
<g filter="url(#filter1_d_213_2218)">
<path fill-rule="evenodd" clip-rule="evenodd" d="M73.7911 36.3575C73.9281 35.4248 73.999 34.4707 73.999 33.5C73.999 22.7305 65.2686 14 54.499 14C46.7116 14 39.9904 18.5648 36.8652 25.1647C34.4509 23.1868 31.3636 22 27.9991 22C20.2671 22 13.9991 28.268 13.9991 36C13.9991 36.3956 14.0155 36.7874 14.0477 37.1747C10.4596 38.9864 7.99902 42.7058 7.99902 47C7.99902 53.0751 12.9239 58 18.999 58H70.999C77.0742 58 81.999 53.0751 81.999 47C81.999 41.8896 78.5141 37.5932 73.7911 36.3575Z" fill="url(#paint2_linear_213_2218)"/>
</g>
<defs>
<filter id="filter0_d_213_2218" x="29.2949" y="45.4619" width="34.0146" height="33" filterUnits="userSpaceOnUse" color-interpolation-filters="sRGB">
<feFlood flood-opacity="0" result="BackgroundImageFix"/>
<feColorMatrix in="SourceAlpha" type="matrix" values="0 0 0 0 0 0 0 0 0 0 0 0 0 0 0 0 0 0 127 0" result="hardAlpha"/>
<feOffset dx="2.30956" dy="0.461913"/>
<feGaussianBlur stdDeviation="1.5"/>
<feColorMatrix type="matrix" values="0 0 0 0 0.204764 0 0 0 0 0.316762 0 0 0 0 0.534167 0 0 0 0.5 0"/>
<feBlend mode="normal" in2="BackgroundImageFix" result="effect1_dropShadow_213_2218"/>
<feBlend mode="normal" in="SourceGraphic" in2="effect1_dropShadow_213_2218" result="shape"/>
</filter>
<filter id="filter1_d_213_2218" x="5.88474" y="10.8286" width="82.4571" height="52.4571" filterUnits="userSpaceOnUse" color-interpolation-filters="sRGB">
<feFlood flood-opacity="0" result="BackgroundImageFix"/>
<feColorMatrix in="SourceAlpha" type="matrix" values="0 0 0 0 0 0 0 0 0 0 0 0 0 0 0 0 0 0 127 0" result="hardAlpha"/>
<feOffset dx="2.11429" dy="1.05714"/>
<feGaussianBlur stdDeviation="2.11429"/>
<feColorMatrix type="matrix" values="0 0 0 0 0.689883 0 0 0 0 0.785691 0 0 0 0 0.971667 0 0 0 0.7 0"/>
<feBlend mode="normal" in2="BackgroundImageFix" result="effect1_dropShadow_213_2218"/>
<feBlend mode="normal" in="SourceGraphic" in2="effect1_dropShadow_213_2218" result="shape"/>
</filter>
<linearGradient id="paint0_linear_213_2218" x1="37.3294" y1="61.5" x2="28.9094" y2="58.4319" gradientUnits="userSpaceOnUse">
<stop stop-color="#FFD100"/>
<stop offset="1" stop-color="#FFF0AA"/>
</linearGradient>
<linearGradient id="paint1_linear_213_2218" x1="51.488" y1="63" x2="46.5668" y2="60.8866" gradientUnits="userSpaceOnUse">
<stop stop-color="#FFD100"/>
<stop offset="1" stop-color="#FFF0AA"/>
</linearGradient>
<linearGradient id="paint2_linear_213_2218" x1="37.969" y1="19.544" x2="51.5811" y2="60.7619" gradientUnits="userSpaceOnUse">
<stop stop-color="white" stop-opacity="0.95"/>
<stop offset="1" stop-color="#B1D5FF" stop-opacity="0.5"/>
</linearGradient>
</defs>
</svg>
